<svg width="14" height="22" viewBox="0 0 14 22" fill="none" xmlns="http://www.w3.org/2000/svg">
<path d="M7 1C8.8187 1 10.2875 1.38245 11.2959 2.25293C12.2758 3.09897 12.9999 4.56375 13 7.13965C13 8.33173 12.6173 9.75724 11.9834 11.2754C11.355 12.7803 10.5094 14.3074 9.65137 15.6846C8.7949 17.0592 7.93665 18.2679 7.29199 19.1328C7.18918 19.2708 7.09087 19.3991 7 19.5186C6.90913 19.3991 6.81082 19.2708 6.70801 19.1328C6.06335 18.2679 5.2051 17.0592 4.34863 15.6846C3.4906 14.3074 2.64497 12.7803 2.0166 11.2754C1.38272 9.75724 1 8.33173 1 7.13965C1.00007 4.56375 1.72424 3.09897 2.7041 2.25293C3.71247 1.38245 5.18129 1 7 1Z" stroke="#3F3E3E" stroke-width="2"/>
</svg>
