<svg width="65" height="58" viewBox="0 0 65 58" fill="none" xmlns="http://www.w3.org/2000/svg">
<path fill-rule="evenodd" clip-rule="evenodd" d="M32.1773 11.8218C42.6346 11.8218 51.1113 19.3943 51.1113 28.7361C51.1113 38.0799 42.6346 45.6524 32.1773 45.6524C21.7179 45.6524 13.2412 38.0799 13.2412 28.7361C13.2412 19.3943 21.7179 11.8218 32.1773 11.8218Z" fill="#F4C519"/>
<path fill-rule="evenodd" clip-rule="evenodd" d="M32.1773 11.8218C36.3297 11.8218 40.17 13.0165 43.2906 15.0419C44.4285 17.2153 45.0653 19.6408 45.0653 22.1972C45.0653 31.541 36.5865 39.1134 26.1292 39.1134C21.9769 39.1134 18.1366 37.9187 15.0159 35.8933C13.8781 33.72 13.2412 31.2944 13.2412 28.7361C13.2412 19.3943 21.7179 11.8218 32.1773 11.8218Z" fill="#F8CB16"/>
<mask id="mask0_77_201" style="mask-type:luminance" maskUnits="userSpaceOnUse" x="30" y="0" width="4" height="10">
<path d="M30.5426 0.168213H33.8033V9.41146H30.5426V0.168213Z" fill="white"/>
</mask>
<g mask="url(#mask0_77_201)">
<path fill-rule="evenodd" clip-rule="evenodd" d="M32.1772 0.168213C32.8948 0.168213 33.4849 0.693526 33.4849 1.33642V8.12757C33.4849 8.76856 32.8948 9.29577 32.1772 9.29577C31.4576 9.29577 30.8674 8.76856 30.8674 8.12757V1.33642C30.8674 0.693526 31.4576 0.168213 32.1772 0.168213Z" fill="#F8CB16"/>
</g>
<mask id="mask1_77_201" style="mask-type:luminance" maskUnits="userSpaceOnUse" x="30" y="47" width="4" height="11">
<path d="M30.5426 47.765H33.8033V57.306H30.5426V47.765Z" fill="white"/>
</mask>
<g mask="url(#mask1_77_201)">
<path fill-rule="evenodd" clip-rule="evenodd" d="M32.1772 48.1785C32.8948 48.1785 33.4849 48.7038 33.4849 49.3467V56.1378C33.4849 56.7807 32.8948 57.306 32.1772 57.306C31.4576 57.306 30.8674 56.7807 30.8674 56.1378V49.3467C30.8674 48.7038 31.4576 48.1785 32.1772 48.1785Z" fill="#F8CB16"/>
</g>
<path fill-rule="evenodd" clip-rule="evenodd" d="M44.6004 2.41169C45.2649 2.66202 45.5769 3.35043 45.2988 3.94212L42.3438 10.2004C42.0657 10.7921 41.2951 11.0727 40.6306 10.8224C39.9683 10.5721 39.6562 9.88366 39.9343 9.29197L42.8872 3.03372C43.1675 2.44203 43.9381 2.16325 44.6004 2.41169Z" fill="#F8CB16"/>
<path fill-rule="evenodd" clip-rule="evenodd" d="M23.7218 46.6518C24.3841 46.9002 24.6962 47.5905 24.4181 48.1822L21.4651 54.4386C21.1849 55.0303 20.4143 55.3109 19.752 55.0606C19.0875 54.8122 18.7754 54.1238 19.0535 53.5302L22.0086 47.2738C22.2867 46.6821 23.0573 46.4015 23.7218 46.6518Z" fill="#F8CB16"/>
<path fill-rule="evenodd" clip-rule="evenodd" d="M54.7902 8.53527C55.2976 8.99041 55.2976 9.73382 54.7902 10.1871L49.4151 14.9888C48.9056 15.444 48.0734 15.444 47.5661 14.9888C47.0566 14.5356 47.0566 13.7922 47.5661 13.3371L52.9412 8.53527C53.4486 8.08012 54.2807 8.08012 54.7902 8.53527Z" fill="#F8CB16"/>
<path fill-rule="evenodd" clip-rule="evenodd" d="M16.7863 42.4834C17.2958 42.9386 17.2958 43.682 16.7863 44.1371L11.4112 48.9389C10.9038 49.3922 10.0717 49.3922 9.56217 48.9389C9.0548 48.4838 9.0548 47.7404 9.56217 47.2852L14.9373 42.4834C15.4468 42.0302 16.279 42.0302 16.7863 42.4834Z" fill="#F8CB16"/>
<path fill-rule="evenodd" clip-rule="evenodd" d="M61.7999 17.9701C62.0695 18.5656 61.7469 19.2521 61.0803 19.4929L54.0387 22.0531C53.3721 22.294 52.6057 22.0057 52.3361 21.4102C52.0644 20.8147 52.3871 20.1301 53.0537 19.8874L60.0953 17.3291C60.7619 17.0863 61.5282 17.3765 61.7999 17.9701Z" fill="#F8CB16"/>
<path fill-rule="evenodd" clip-rule="evenodd" d="M12.0183 36.064C12.2879 36.6576 11.9653 37.3441 11.2987 37.5849L4.25708 40.1451C3.59049 40.386 2.82413 40.0977 2.55452 39.5022C2.2828 38.9068 2.60547 38.2221 3.27206 37.9794L10.3137 35.4211C10.9802 35.1784 11.7466 35.4685 12.0183 36.064Z" fill="#F8CB16"/>
<mask id="mask2_77_201" style="mask-type:luminance" maskUnits="userSpaceOnUse" x="0" y="27" width="11" height="4">
<path d="M0.196045 27.3745H10.4347V30.2874H0.196045V27.3745Z" fill="white"/>
</mask>
<g mask="url(#mask2_77_201)">
<path fill-rule="evenodd" clip-rule="evenodd" d="M0.196045 28.7361C0.196045 28.0951 0.784083 27.5679 1.50374 27.5679H9.10577C9.82543 27.5679 10.4135 28.0951 10.4135 28.7361C10.4135 29.379 9.82543 29.9043 9.10577 29.9043H1.50374C0.784083 29.9043 0.196045 29.379 0.196045 28.7361Z" fill="#F8CB16"/>
</g>
<mask id="mask3_77_201" style="mask-type:luminance" maskUnits="userSpaceOnUse" x="53" y="27" width="12" height="4">
<path d="M53.9114 27.3745H64.1564V30.2874H53.9114V27.3745Z" fill="white"/>
</mask>
<g mask="url(#mask3_77_201)">
<path fill-rule="evenodd" clip-rule="evenodd" d="M53.939 28.7361C53.939 28.0951 54.527 27.5679 55.2467 27.5679H62.8487C63.5684 27.5679 64.1564 28.0951 64.1564 28.7361C64.1564 29.379 63.5684 29.9043 62.8487 29.9043H55.2467C54.527 29.9043 53.939 29.379 53.939 28.7361Z" fill="#F8CB16"/>
</g>
<path fill-rule="evenodd" clip-rule="evenodd" d="M2.70747 17.6382C2.98769 17.0446 3.7583 16.7658 4.42064 17.0143L11.4261 19.6522C12.0885 19.9025 12.4027 20.5909 12.1224 21.1826C11.8422 21.7762 11.0716 22.055 10.4093 21.8066L3.4059 19.1667C2.74144 18.9183 2.42938 18.2299 2.70747 17.6382Z" fill="#F8CB16"/>
<path fill-rule="evenodd" clip-rule="evenodd" d="M52.2299 36.2897C52.5101 35.698 53.2807 35.4173 53.943 35.6677L60.9464 38.3056C61.6109 38.556 61.923 39.2444 61.6449 39.836C61.3646 40.4277 60.594 40.7084 59.9317 40.4581L52.9262 37.8201C52.2639 37.5717 51.9497 36.8814 52.2299 36.2897Z" fill="#F8CB16"/>
<path fill-rule="evenodd" clip-rule="evenodd" d="M9.56217 8.53527C10.0717 8.08012 10.9038 8.08012 11.4112 8.53527L16.7863 13.3371C17.2958 13.7922 17.2958 14.5356 16.7863 14.9888C16.279 15.444 15.4468 15.444 14.9373 14.9888L9.56217 10.1871C9.0548 9.73382 9.0548 8.99041 9.56217 8.53527Z" fill="#F8CB16"/>
<path fill-rule="evenodd" clip-rule="evenodd" d="M47.5661 42.4834C48.0734 42.0302 48.9056 42.0302 49.4151 42.4834L54.7902 47.2852C55.2976 47.7404 55.2976 48.4838 54.7902 48.9389C54.2807 49.3922 53.4486 49.3922 52.9412 48.9389L47.5661 44.1371C47.0566 43.682 47.0566 42.9386 47.5661 42.4834Z" fill="#F8CB16"/>
<path fill-rule="evenodd" clip-rule="evenodd" d="M20.1256 2.27322C20.79 2.03237 21.5585 2.32063 21.8281 2.91611L24.694 9.2066C24.9636 9.80019 24.6409 10.4867 23.9743 10.7275C23.3078 10.9703 22.5414 10.682 22.2718 10.0865L19.4059 3.79606C19.1342 3.20058 19.459 2.51596 20.1256 2.27322Z" fill="#F8CB16"/>
<path fill-rule="evenodd" clip-rule="evenodd" d="M40.378 46.7447C41.0446 46.5039 41.8109 46.7921 42.0826 47.3876L44.9464 53.6781C45.2181 54.2717 44.8933 54.9582 44.2268 55.199C43.5623 55.4418 42.7938 55.1535 42.5242 54.558L39.6583 48.2676C39.3887 47.6721 39.7114 46.9875 40.378 46.7447Z" fill="#F8CB16"/>
</svg>
